<svg width="81" height="81" viewBox="0 0 81 81" fill="none" xmlns="http://www.w3.org/2000/svg">
<path d="M40.5 80.6899C62.5914 80.6899 80.5 62.7813 80.5 40.6899C80.5 18.5986 62.5914 0.689941 40.5 0.689941C18.4086 0.689941 0.5 18.5986 0.5 40.6899C0.5 62.7813 18.4086 80.6899 40.5 80.6899Z" fill="url(#paint0_linear_226_373)"/>
<path d="M44.8295 22.9489V31.7643H53.645L44.8295 22.9489Z" fill="white"/>
<path d="M44.8295 33.9681C43.6152 33.9681 42.6257 32.9786 42.6257 31.7643V22.9489H29.4025C28.1882 22.9489 27.1987 23.9384 27.1987 25.1527V56.0067C27.1987 57.2232 28.1882 58.2106 29.4025 58.2106H51.4411C52.6576 58.2106 53.645 57.2232 53.645 56.0067V33.9681H44.8295ZM34.9122 29.6971V28.4585C34.9122 27.8502 35.4058 27.3566 36.0141 27.3566C36.6224 27.3566 37.116 27.8502 37.116 28.4585V29.6993C37.8058 29.8557 38.4494 30.1466 38.9805 30.5786C39.4543 30.9621 39.5248 31.6563 39.1392 32.1279C38.7535 32.6017 38.0593 32.6701 37.5899 32.2866C37.1733 31.9494 36.6135 31.7643 36.0141 31.7643C34.8196 31.7643 33.8102 32.5202 33.8102 33.4172C33.8102 34.3141 34.8196 35.0701 36.0141 35.0701C38.445 35.0701 40.4218 36.8001 40.4218 38.9268C40.4218 40.7185 39.0113 42.215 37.116 42.6469V43.8855C37.116 44.4938 36.6224 44.9874 36.0141 44.9874C35.4058 44.9874 34.9122 44.4938 34.9122 43.8855V42.6447C34.2224 42.4882 33.5788 42.1973 33.0477 41.7654C32.5739 41.3797 32.5034 40.6855 32.889 40.2139C33.2747 39.7378 33.9667 39.6717 34.4383 40.0552C34.8549 40.3946 35.4146 40.5797 36.0141 40.5797C37.2086 40.5797 38.218 39.8238 38.218 38.9268C38.218 38.0298 37.2086 37.2739 36.0141 37.2739C33.5832 37.2739 31.6064 35.5439 31.6064 33.4172C31.6064 31.6254 33.0169 30.129 34.9122 29.6971ZM48.1353 53.8028H32.7083C32.1 53.8028 31.6064 53.3092 31.6064 52.7009C31.6064 52.0927 32.1 51.599 32.7083 51.599H48.1353C48.7436 51.599 49.2372 52.0927 49.2372 52.7009C49.2372 53.3092 48.7436 53.8028 48.1353 53.8028ZM48.1353 49.3951H32.7083C32.1 49.3951 31.6064 48.9015 31.6064 48.2932C31.6064 47.6849 32.1 47.1913 32.7083 47.1913H48.1353C48.7436 47.1913 49.2372 47.6849 49.2372 48.2932C49.2372 48.9015 48.7436 49.3951 48.1353 49.3951ZM48.1353 44.9874H43.7276C43.1193 44.9874 42.6257 44.4938 42.6257 43.8855C42.6257 43.2772 43.1193 42.7836 43.7276 42.7836H48.1353C48.7436 42.7836 49.2372 43.2772 49.2372 43.8855C49.2372 44.4938 48.7436 44.9874 48.1353 44.9874ZM48.1353 40.5797H43.7276C43.1193 40.5797 42.6257 40.086 42.6257 39.4778C42.6257 38.8695 43.1193 38.3758 43.7276 38.3758H48.1353C48.7436 38.3758 49.2372 38.8673 49.2372 39.4778C49.2372 40.086 48.7436 40.5797 48.1353 40.5797Z" fill="white"/>
<defs>
<linearGradient id="paint0_linear_226_373" x1="1705.54" y1="815.512" x2="6774.77" y2="6848.53" gradientUnits="userSpaceOnUse">
<stop stop-color="#8069EE"/>
<stop offset="1" stop-color="#695BD0"/>
</linearGradient>
</defs>
</svg>
