<svg width="81" height="81" viewBox="0 0 81 81" fill="none" xmlns="http://www.w3.org/2000/svg">
<path d="M40.5 80.6899C62.5914 80.6899 80.5 62.7813 80.5 40.6899C80.5 18.5986 62.5914 0.689941 40.5 0.689941C18.4086 0.689941 0.5 18.5986 0.5 40.6899C0.5 62.7813 18.4086 80.6899 40.5 80.6899Z" fill="url(#paint0_linear_226_283)"/>
<path d="M41.5041 63.2601C41.9909 63.2406 42.4014 63.6195 42.4209 64.1064C42.4404 64.5933 42.0615 65.0037 41.5746 65.0232C41.2543 65.0361 40.9328 65.0426 40.6102 65.0426C40.321 65.0426 40.0325 65.0367 39.7445 65.025C39.2577 65.0074 38.8772 64.5985 38.8947 64.1117C38.9122 63.6248 39.3211 63.2443 39.808 63.2619C40.3704 63.2857 40.9399 63.2848 41.5041 63.2619V63.2601ZM34.5584 63.3708C34.6683 62.8981 35.1396 62.6032 35.6127 62.7109C36.1575 62.8378 36.7173 62.941 37.2771 63.0291C37.7339 63.0975 38.0605 63.5067 38.0257 63.9673C37.991 64.4278 37.6067 64.7835 37.1449 64.7825C37.1003 64.7827 37.0558 64.7795 37.0117 64.7728C36.4079 64.6812 35.8031 64.5648 35.2134 64.4282C34.7413 64.316 34.4485 63.8434 34.5584 63.3708ZM45.6976 62.6898C46.0078 62.6072 46.3383 62.6999 46.5605 62.9316C46.7827 63.1633 46.8613 63.4974 46.7658 63.8039C46.6703 64.1104 46.4158 64.3407 46.1013 64.4052C45.5107 64.5454 44.9051 64.6635 44.3047 64.7579C44.2595 64.7646 44.2138 64.7678 44.1681 64.7676C43.7101 64.7641 43.331 64.4104 43.2958 63.9537C43.2606 63.497 43.5811 63.0895 44.0332 63.0159C44.5895 62.9286 45.1484 62.8193 45.6976 62.6898ZM26.5055 40.3594C32.3459 40.3643 37.0792 45.0976 37.084 50.9379C37.084 56.7803 32.3479 61.5164 26.5055 61.5164C20.6632 61.5164 15.927 56.7803 15.927 50.9379C15.927 45.0956 20.6632 40.3594 26.5055 40.3594ZM54.7149 40.3594C60.5546 40.3657 65.2871 45.0982 65.2934 50.9379C65.2934 56.7803 60.5572 61.5164 54.7149 61.5164C48.8725 61.5164 44.1364 56.7803 44.1364 50.9379C44.1364 45.0956 48.8725 40.3594 54.7149 40.3594ZM26.5055 41.2409C21.15 41.2409 16.8085 45.5824 16.8085 50.9379C16.8085 56.2934 21.15 60.6349 26.5055 60.6349C31.8596 60.6315 36.1991 56.292 36.2025 50.9379C36.2025 45.5824 31.861 41.2409 26.5055 41.2409ZM54.7149 41.2409C49.3594 41.2409 45.0179 45.5824 45.0179 50.9379C45.0179 56.2934 49.3594 60.6349 54.7149 60.6349C60.0677 60.6286 64.4055 56.2908 64.4118 50.9379C64.4118 45.5824 60.0704 41.2409 54.7149 41.2409ZM26.5055 43.004C30.8845 43.0108 34.4326 46.559 34.4394 50.9379C34.4394 55.3197 30.8873 58.8718 26.5055 58.8718C22.1238 58.8718 18.5716 55.3197 18.5716 50.9379C18.5716 46.5561 22.1238 43.004 26.5055 43.004ZM54.7149 43.004C59.0946 43.0089 62.6439 46.5582 62.6488 50.9379C62.6488 55.3197 59.0966 58.8718 54.7149 58.8718C50.3331 58.8718 46.781 55.3197 46.781 50.9379C46.781 46.5561 50.3331 43.004 54.7149 43.004ZM27.3871 44.7671C25.5975 44.7671 24.0901 46.1952 23.3937 48.2933H22.0978C21.6109 48.2933 21.2163 48.688 21.2163 49.1748C21.2163 49.6617 21.6109 50.0564 22.0978 50.0564H23.0234C22.997 50.3473 22.9793 50.6382 22.9793 50.9379C22.9793 51.2376 22.997 51.5285 23.0234 51.8195H22.0978C21.6109 51.8195 21.2163 52.2141 21.2163 52.701C21.2163 53.1879 21.6109 53.5825 22.0978 53.5825H23.3937C24.0901 55.6806 25.5975 57.1087 27.3871 57.1087C28.8267 57.0349 30.1174 56.198 30.7722 54.9137C31.0103 54.4958 30.8696 53.9643 30.4559 53.719C30.0423 53.4737 29.5084 53.6052 29.2559 54.0145C28.91 54.7557 28.2006 55.261 27.3871 55.3456C26.5496 55.3456 25.7915 54.6404 25.2978 53.5825H26.5055C26.9924 53.5825 27.3871 53.1879 27.3871 52.701C27.3871 52.2141 26.9924 51.8195 26.5055 51.8195H24.7953C24.7248 51.2339 24.7248 50.6419 24.7953 50.0564H26.5055C26.9924 50.0564 27.3871 49.6617 27.3871 49.1748C27.3871 48.688 26.9924 48.2933 26.5055 48.2933H25.2978C25.7915 47.2354 26.5496 46.5302 27.3871 46.5302C28.2103 46.6209 28.926 47.1359 29.2736 47.8878C29.4313 48.1646 29.7261 48.3347 30.0447 48.3328C30.3633 48.331 30.656 48.1573 30.8105 47.8787C30.9649 47.6001 30.957 47.2598 30.7898 46.9886C30.1375 45.6902 28.8382 44.8419 27.3871 44.7671ZM55.5964 44.7671C53.649 44.7671 52.0703 46.3458 52.0703 48.2933V50.9379H50.3072C49.8203 50.9379 49.4256 51.3326 49.4256 51.8195C49.4256 52.3063 49.8203 52.701 50.3072 52.701H52.0376C52.0086 53.3208 51.898 53.934 51.7088 54.5249L51.2346 55.9486C51.1451 56.2173 51.1901 56.5126 51.3556 56.7424C51.5212 56.9722 51.787 57.1085 52.0703 57.1087H57.3595C57.8464 57.1087 58.2411 56.714 58.2411 56.2272C58.2411 55.7403 57.8464 55.3456 57.3595 55.3456H53.2929L53.3811 55.0812C53.6352 54.3116 53.782 53.5107 53.8175 52.701H55.5964C56.0833 52.701 56.478 52.3063 56.478 51.8195C56.478 51.3326 56.0833 50.9379 55.5964 50.9379H53.8333V48.2933C53.8333 47.3196 54.6227 46.5302 55.5964 46.5302C56.5701 46.5302 57.3595 47.3196 57.3595 48.2933C57.3595 48.7801 57.7542 49.1748 58.2411 49.1748C58.7279 49.1748 59.1226 48.7801 59.1226 48.2933C59.1226 46.3458 57.5439 44.7671 55.5964 44.7671ZM17.6396 36.9006C17.9333 36.7867 18.2655 36.8381 18.511 37.0355C18.7565 37.2329 18.8781 37.5463 18.8299 37.8576C18.787 38.135 18.7491 38.4147 18.7162 38.6968C18.6652 39.1414 18.2892 39.4772 17.8417 39.4779C17.8079 39.4778 17.774 39.4761 17.7403 39.4726C17.508 39.4458 17.2959 39.3279 17.1506 39.1447C17.0053 38.9615 16.9387 38.7281 16.9655 38.4958C16.999 38.1917 17.0413 37.8884 17.0871 37.5878C17.1353 37.2765 17.3459 37.0145 17.6396 36.9006ZM62.7094 37.0355C62.9549 36.8381 63.2871 36.7867 63.5808 36.9006C63.8745 37.0145 64.0851 37.2765 64.1333 37.5878C64.1791 37.8884 64.2206 38.1917 64.2549 38.4958C64.2817 38.7281 64.2151 38.9615 64.0698 39.1447C63.9245 39.3279 63.7123 39.4458 63.4801 39.4726C63.4464 39.4761 63.4125 39.4778 63.3787 39.4779C62.9312 39.4772 62.5552 39.1414 62.5042 38.6968C62.4719 38.4153 62.434 38.1356 62.3905 37.8576C62.3423 37.5463 62.4638 37.2329 62.7094 37.0355ZM40.6102 16.5577C46.4499 16.5641 51.1824 21.2965 51.1887 27.1363C51.1887 32.9786 46.4525 37.7148 40.6102 37.7148C34.7678 37.7148 30.0317 32.9786 30.0317 27.1363C30.0317 21.2939 34.7678 16.5577 40.6102 16.5577ZM40.6102 17.4393C35.2547 17.4393 30.9132 21.7808 30.9132 27.1363C30.9132 32.4917 35.2547 36.8332 40.6102 36.8332C45.9631 36.8269 50.3009 32.4891 50.3072 27.1363C50.3072 21.7808 45.9657 17.4393 40.6102 17.4393ZM62.3472 32.6286C62.6572 32.6848 62.9136 32.9021 63.0199 33.1986C63.2226 33.7646 63.406 34.3446 63.5656 34.9247C63.6274 35.1502 63.5972 35.391 63.4814 35.5942C63.3657 35.7974 63.174 35.9463 62.9485 36.0081C62.8719 36.0297 62.7927 36.0406 62.7131 36.0407C62.3164 36.0401 61.9689 35.7746 61.8642 35.3919C61.7161 34.8515 61.546 34.3173 61.3582 33.7937C61.2537 33.4971 61.3136 33.1664 61.5173 32.9261C61.7209 32.6858 62.0373 32.5724 62.3472 32.6286ZM18.2023 33.1986C18.3666 32.7402 18.8714 32.5019 19.3298 32.6662C19.7881 32.8305 20.0265 33.3353 19.8622 33.7937C19.6744 34.3173 19.5043 34.855 19.3562 35.3919C19.2515 35.7746 18.904 36.0401 18.5073 36.0407C18.4277 36.0406 18.3485 36.0297 18.2719 36.0081C17.803 35.8786 17.5276 35.3937 17.6566 34.9247C17.8161 34.3446 17.9995 33.7646 18.2023 33.1986ZM40.6102 19.2024C44.992 19.2024 48.5441 22.7545 48.5441 27.1363C48.5441 31.518 44.992 35.0701 40.6102 35.0701C41.0971 35.0701 41.4917 34.6755 41.4917 34.1886V33.2356C43.5008 32.9077 45.0179 31.484 45.0179 29.7809C45.0179 27.8362 43.0406 26.2547 40.6102 26.2547C39.1768 26.2547 37.9656 25.4472 37.9656 24.4916C37.9656 23.536 39.1768 22.7285 40.6102 22.7285C42.0436 22.7285 43.2548 23.536 43.2548 24.4916C43.2548 24.9785 43.6495 25.3732 44.1364 25.3732C44.6232 25.3732 45.0179 24.9785 45.0179 24.4916C45.0179 22.7885 43.5008 21.3648 41.4917 21.0369V20.0839C41.4917 19.597 41.0971 19.2024 40.6102 19.2024ZM40.6102 19.2024C40.1233 19.2024 39.7287 19.597 39.7287 20.0839V21.0369C37.7196 21.3648 36.2025 22.7885 36.2025 24.4916C36.2025 26.4363 38.1798 28.0178 40.6102 28.0178C42.0436 28.0178 43.2548 28.8253 43.2548 29.7809C43.2548 30.7365 42.0436 31.544 40.6102 31.544C39.1768 31.544 37.9656 30.7365 37.9656 29.7809C37.9656 29.294 37.5709 28.8993 37.084 28.8993C36.5972 28.8993 36.2025 29.294 36.2025 29.7809C36.2025 31.484 37.7196 32.9077 39.7287 33.2356V34.1886C39.7287 34.6755 40.1233 35.0701 40.6102 35.0701C36.2284 35.0701 32.6763 31.518 32.6763 27.1363C32.6763 22.7545 36.2284 19.2024 40.6102 19.2024ZM60.3208 28.6632C60.6394 28.6613 60.9342 28.8315 61.092 29.1083C61.4014 29.6293 61.6923 30.1644 61.9568 30.6994C62.0986 30.9821 62.0782 31.3191 61.9033 31.5825C61.7283 31.846 61.4257 31.9956 61.1101 31.9745C60.7946 31.9534 60.5145 31.7649 60.3761 31.4805C60.132 30.9859 59.8622 30.4905 59.5757 30.0074C59.4085 29.7363 59.4006 29.396 59.555 29.1173C59.7095 28.8387 60.0023 28.6651 60.3208 28.6632ZM20.8996 28.6632C21.2181 28.6651 21.5109 28.8387 21.6654 29.1173C21.8198 29.396 21.8119 29.7363 21.6447 30.0074C21.3582 30.4905 21.0884 30.9859 20.8442 31.4805C20.7407 31.6903 20.5581 31.8503 20.3366 31.9254C20.115 32.0005 19.8727 31.9844 19.663 31.8807C19.4533 31.7771 19.2935 31.5944 19.2186 31.3728C19.1437 31.1513 19.1599 30.909 19.2636 30.6994C19.5281 30.1661 19.819 29.6293 20.1284 29.1083C20.2862 28.8315 20.581 28.6613 20.8996 28.6632ZM57.1828 25.3807C57.5479 25.0576 58.1058 25.0918 58.4288 25.4569C58.8273 25.91 59.2143 26.3808 59.5748 26.8568C59.8689 27.2448 59.7927 27.7978 59.4047 28.0918C59.0167 28.3859 58.4637 28.3097 58.1696 27.9217C57.8364 27.4818 57.4785 27.0481 57.1065 26.6267C56.7835 26.2616 56.8176 25.7037 57.1828 25.3807ZM22.7933 25.4534C23.1164 25.0882 23.6743 25.0541 24.0394 25.3771C24.4045 25.7002 24.4387 26.258 24.1157 26.6232C23.7436 27.0419 23.3857 27.4774 23.0525 27.9182C22.886 28.1402 22.6247 28.2708 22.3473 28.2708C22.0187 28.2637 21.7134 28.0751 21.5641 27.7764C21.4148 27.4778 21.447 27.1204 21.6473 26.8533C22.0044 26.3772 22.3914 25.9065 22.7933 25.4534ZM25.4009 22.9348C25.7751 22.623 26.3312 22.6735 26.643 23.0477C26.9549 23.4218 26.9044 23.9779 26.5302 24.2898C26.3133 24.4708 26.0994 24.6556 25.8884 24.8442C25.7258 24.989 25.5155 25.0684 25.2978 25.0673C24.9344 25.0698 24.6071 24.8447 24.4765 24.5037C24.3459 24.1627 24.439 23.7765 24.7107 23.5325C24.9373 23.3289 25.1673 23.1305 25.4009 22.9348ZM54.9504 22.7846C55.2462 22.6758 55.5774 22.7331 55.8195 22.9348C56.0531 23.1305 56.2831 23.3289 56.5097 23.5325C56.863 23.8597 56.8883 24.4099 56.5666 24.7682C56.2449 25.1265 55.6952 25.1604 55.332 24.8442C55.1233 24.6538 54.9094 24.469 54.6902 24.2898C54.4482 24.088 54.3321 23.7725 54.3858 23.462C54.4395 23.1516 54.6547 22.8933 54.9504 22.7846Z" fill="white"/>
<defs>
<linearGradient id="paint0_linear_226_283" x1="1705.54" y1="815.512" x2="6774.77" y2="6848.53" gradientUnits="userSpaceOnUse">
<stop stop-color="#8069EE"/>
<stop offset="1" stop-color="#695BD0"/>
</linearGradient>
</defs>
</svg>
