<svg width="119" height="13" viewBox="0 0 119 13" fill="none" xmlns="http://www.w3.org/2000/svg">
<path d="M0.73259 6.26058C0.73259 5.15124 0.97259 4.16458 1.45259 3.30058C1.93259 2.42591 2.59926 1.74858 3.45259 1.26858C4.31659 0.777911 5.29259 0.532578 6.38059 0.532578C7.71392 0.532578 8.85526 0.884577 9.80459 1.58858C10.7539 2.29258 11.3886 3.25258 11.7086 4.46858H8.70059C8.47659 3.99924 8.15659 3.64191 7.74059 3.39658C7.33526 3.15124 6.87126 3.02858 6.34859 3.02858C5.50592 3.02858 4.82326 3.32191 4.30059 3.90858C3.77792 4.49524 3.51659 5.27924 3.51659 6.26058C3.51659 7.24191 3.77792 8.02591 4.30059 8.61258C4.82326 9.19924 5.50592 9.49258 6.34859 9.49258C6.87126 9.49258 7.33526 9.36991 7.74059 9.12458C8.15659 8.87924 8.47659 8.52191 8.70059 8.05258H11.7086C11.3886 9.26858 10.7539 10.2286 9.80459 10.9326C8.85526 11.6259 7.71392 11.9726 6.38059 11.9726C5.29259 11.9726 4.31659 11.7326 3.45259 11.2526C2.59926 10.7619 1.93259 10.0846 1.45259 9.22058C0.97259 8.35658 0.73259 7.36991 0.73259 6.26058ZM18.6961 12.0046C17.6401 12.0046 16.6694 11.7592 15.7841 11.2686C14.9094 10.7779 14.2108 10.0952 13.6881 9.22058C13.1761 8.33524 12.9201 7.34324 12.9201 6.24458C12.9201 5.14591 13.1761 4.15924 13.6881 3.28458C14.2108 2.40991 14.9094 1.72724 15.7841 1.23658C16.6694 0.745911 17.6401 0.500578 18.6961 0.500578C19.7521 0.500578 20.7174 0.745911 21.5921 1.23658C22.4774 1.72724 23.1708 2.40991 23.6721 3.28458C24.1841 4.15924 24.4401 5.14591 24.4401 6.24458C24.4401 7.34324 24.1841 8.33524 23.6721 9.22058C23.1601 10.0952 22.4668 10.7779 21.5921 11.2686C20.7174 11.7592 19.7521 12.0046 18.6961 12.0046ZM18.6961 9.50858C19.5921 9.50858 20.3068 9.20991 20.8401 8.61258C21.3841 8.01524 21.6561 7.22591 21.6561 6.24458C21.6561 5.25258 21.3841 4.46324 20.8401 3.87658C20.3068 3.27924 19.5921 2.98058 18.6961 2.98058C17.7894 2.98058 17.0641 3.27391 16.5201 3.86058C15.9868 4.44724 15.7201 5.24191 15.7201 6.24458C15.7201 7.23658 15.9868 8.03124 16.5201 8.62858C17.0641 9.21524 17.7894 9.50858 18.6961 9.50858ZM38.6822 0.660578V11.8926H35.9462V5.15658L33.4342 11.8926H31.2262L28.6982 5.14058V11.8926H25.9622V0.660578H29.1942L32.3462 8.43658L35.4662 0.660578H38.6822ZM43.3857 0.660578V11.8926H40.6497V0.660578H43.3857ZM55.4165 11.8926H52.6805L48.1045 4.96458V11.8926H45.3685V0.660578H48.1045L52.6805 7.62058V0.660578H55.4165V11.8926ZM64.8557 4.21258C64.653 3.83924 64.3597 3.55658 63.9757 3.36458C63.6024 3.16191 63.1597 3.06058 62.6477 3.06058C61.7624 3.06058 61.053 3.35391 60.5197 3.94058C59.9864 4.51658 59.7197 5.28991 59.7197 6.26058C59.7197 7.29524 59.997 8.10591 60.5517 8.69258C61.117 9.26858 61.8904 9.55658 62.8717 9.55658C63.5437 9.55658 64.109 9.38591 64.5677 9.04458C65.037 8.70324 65.3784 8.21258 65.5917 7.57258H62.1197V5.55658H68.0717V8.10058C67.869 8.78324 67.5224 9.41791 67.0317 10.0046C66.5517 10.5912 65.9384 11.0659 65.1917 11.4286C64.445 11.7912 63.6024 11.9726 62.6637 11.9726C61.5544 11.9726 60.5624 11.7326 59.6877 11.2526C58.8237 10.7619 58.1464 10.0846 57.6557 9.22058C57.1757 8.35658 56.9357 7.36991 56.9357 6.26058C56.9357 5.15124 57.1757 4.16458 57.6557 3.30058C58.1464 2.42591 58.8237 1.74858 59.6877 1.26858C60.5517 0.777911 61.5384 0.532578 62.6477 0.532578C63.9917 0.532578 65.1224 0.857911 66.0397 1.50858C66.9677 2.15924 67.581 3.06058 67.8797 4.21258H64.8557ZM77.0418 12.0046C76.2205 12.0046 75.4845 11.8712 74.8338 11.6046C74.1832 11.3379 73.6605 10.9432 73.2658 10.4206C72.8818 9.89791 72.6792 9.26858 72.6578 8.53258H75.5698C75.6125 8.94858 75.7565 9.26858 76.0018 9.49258C76.2472 9.70591 76.5672 9.81258 76.9618 9.81258C77.3672 9.81258 77.6872 9.72191 77.9218 9.54058C78.1565 9.34858 78.2738 9.08724 78.2738 8.75658C78.2738 8.47924 78.1778 8.24991 77.9858 8.06858C77.8045 7.88724 77.5752 7.73791 77.2978 7.62058C77.0312 7.50324 76.6472 7.36991 76.1458 7.22058C75.4205 6.99658 74.8285 6.77258 74.3698 6.54858C73.9112 6.32458 73.5165 5.99391 73.1858 5.55658C72.8552 5.11924 72.6898 4.54858 72.6898 3.84458C72.6898 2.79924 73.0685 1.98324 73.8258 1.39658C74.5832 0.799245 75.5698 0.500578 76.7858 0.500578C78.0232 0.500578 79.0205 0.799245 79.7778 1.39658C80.5352 1.98324 80.9405 2.80458 80.9938 3.86058H78.0338C78.0125 3.49791 77.8792 3.21524 77.6338 3.01258C77.3885 2.79924 77.0738 2.69258 76.6898 2.69258C76.3592 2.69258 76.0925 2.78324 75.8898 2.96458C75.6872 3.13524 75.5858 3.38591 75.5858 3.71658C75.5858 4.07924 75.7565 4.36191 76.0978 4.56458C76.4392 4.76724 76.9725 4.98591 77.6978 5.22058C78.4232 5.46591 79.0098 5.70058 79.4578 5.92458C79.9165 6.14858 80.3112 6.47391 80.6418 6.90058C80.9725 7.32724 81.1378 7.87658 81.1378 8.54858C81.1378 9.18858 80.9725 9.76991 80.6418 10.2926C80.3218 10.8152 79.8525 11.2312 79.2338 11.5406C78.6152 11.8499 77.8845 12.0046 77.0418 12.0046ZM88.1336 12.0046C87.0776 12.0046 86.1069 11.7592 85.2216 11.2686C84.3469 10.7779 83.6483 10.0952 83.1256 9.22058C82.6136 8.33524 82.3576 7.34324 82.3576 6.24458C82.3576 5.14591 82.6136 4.15924 83.1256 3.28458C83.6483 2.40991 84.3469 1.72724 85.2216 1.23658C86.1069 0.745911 87.0776 0.500578 88.1336 0.500578C89.1896 0.500578 90.1549 0.745911 91.0296 1.23658C91.9149 1.72724 92.6083 2.40991 93.1096 3.28458C93.6216 4.15924 93.8776 5.14591 93.8776 6.24458C93.8776 7.34324 93.6216 8.33524 93.1096 9.22058C92.5976 10.0952 91.9043 10.7779 91.0296 11.2686C90.1549 11.7592 89.1896 12.0046 88.1336 12.0046ZM88.1336 9.50858C89.0296 9.50858 89.7443 9.20991 90.2776 8.61258C90.8216 8.01524 91.0936 7.22591 91.0936 6.24458C91.0936 5.25258 90.8216 4.46324 90.2776 3.87658C89.7443 3.27924 89.0296 2.98058 88.1336 2.98058C87.2269 2.98058 86.5016 3.27391 85.9576 3.86058C85.4243 4.44724 85.1576 5.24191 85.1576 6.24458C85.1576 7.23658 85.4243 8.03124 85.9576 8.62858C86.5016 9.21524 87.2269 9.50858 88.1336 9.50858ZM100.712 12.0046C99.6557 12.0046 98.685 11.7592 97.7997 11.2686C96.925 10.7779 96.2264 10.0952 95.7037 9.22058C95.1917 8.33524 94.9357 7.34324 94.9357 6.24458C94.9357 5.14591 95.1917 4.15924 95.7037 3.28458C96.2264 2.40991 96.925 1.72724 97.7997 1.23658C98.685 0.745911 99.6557 0.500578 100.712 0.500578C101.768 0.500578 102.733 0.745911 103.608 1.23658C104.493 1.72724 105.186 2.40991 105.688 3.28458C106.2 4.15924 106.456 5.14591 106.456 6.24458C106.456 7.34324 106.2 8.33524 105.688 9.22058C105.176 10.0952 104.482 10.7779 103.608 11.2686C102.733 11.7592 101.768 12.0046 100.712 12.0046ZM100.712 9.50858C101.608 9.50858 102.322 9.20991 102.856 8.61258C103.4 8.01524 103.672 7.22591 103.672 6.24458C103.672 5.25258 103.4 4.46324 102.856 3.87658C102.322 3.27924 101.608 2.98058 100.712 2.98058C99.805 2.98058 99.0797 3.27391 98.5357 3.86058C98.0024 4.44724 97.7357 5.24191 97.7357 6.24458C97.7357 7.23658 98.0024 8.03124 98.5357 8.62858C99.0797 9.21524 99.805 9.50858 100.712 9.50858ZM118.026 11.8926H115.29L110.714 4.96458V11.8926H107.978V0.660578H110.714L115.29 7.62058V0.660578H118.026V11.8926Z" fill="#6E6E6E"/>
</svg>
