<svg width="38" height="37" viewBox="0 0 38 37" fill="none" xmlns="http://www.w3.org/2000/svg">
<path d="M31.3333 10.7852H6.66666V27.7852H31.3333V10.7852Z" fill="#7778E7"/>
<path fill-rule="evenodd" clip-rule="evenodd" d="M19 0.785156C8.78276 0.785156 0.5 8.84406 0.5 18.7852C0.5 28.7263 8.78276 36.7852 19 36.7852C29.2172 36.7852 37.5 28.7263 37.5 18.7852C37.5 8.84406 29.2172 0.785156 19 0.785156ZM18.9722 20.2996L12.0615 15.4188V23.8707L25.9364 23.8842L12.0615 25.7077H10.9069C10.2637 25.7077 9.75239 25.2102 9.75239 24.5843V13.2067C9.75239 13.159 9.7554 13.1143 9.7611 13.0725C9.78207 12.894 9.84898 12.7193 9.96684 12.5647C10.2197 12.2331 10.7701 12.0893 11.6179 12.1333L26.4124 12.0692C27.2359 12.0251 27.7741 12.1742 28.027 12.5166C28.2286 12.781 28.2905 13.1044 28.2249 13.4047V24.6004C28.2249 25.2102 27.7136 25.7077 27.0704 25.7077H12.0408L25.9158 23.8842V15.3943L18.9722 20.2996Z" fill="white"/>
</svg>
