<svg width="36" height="37" viewBox="0 0 36 37" fill="none" xmlns="http://www.w3.org/2000/svg">
<path d="M0 18.7852C0 8.84403 8.05887 0.785156 18 0.785156C27.9411 0.785156 36 8.84403 36 18.7852C36 28.7263 27.9411 36.7852 18 36.7852C8.05887 36.7852 0 28.7263 0 18.7852Z" fill="white"/>
<path d="M17.4609 15.4156L17.4987 16.0384L16.8691 15.9622C14.5776 15.6698 12.5757 14.6783 10.876 13.0132L10.045 12.187L9.83098 12.7971C9.37772 14.1572 9.6673 15.5935 10.6116 16.5596C11.1152 17.0934 11.0019 17.1697 10.1332 16.8519C9.83098 16.7502 9.56658 16.674 9.5414 16.7121C9.45326 16.8011 9.75544 17.9578 9.99466 18.4154C10.322 19.0509 10.9893 19.6738 11.7196 20.0424L12.3365 20.3348L11.6063 20.3475C10.9012 20.3475 10.876 20.3602 10.9515 20.6271C11.2034 21.4533 12.198 22.3304 13.306 22.7117L14.0866 22.9787L13.4067 23.3854C12.3995 23.9701 11.216 24.3006 10.0324 24.326C9.46585 24.3387 9 24.3896 9 24.4277C9 24.5548 10.5361 25.2666 11.43 25.5463C14.1118 26.3725 17.2972 26.0166 19.6894 24.6057C21.3892 23.6015 23.0889 21.6059 23.8821 19.6738C24.3102 18.6442 24.7383 16.763 24.7383 15.8605C24.7383 15.2758 24.7761 15.1995 25.4811 14.5004C25.8966 14.0936 26.2869 13.6488 26.3625 13.5216C26.4884 13.2801 26.4758 13.2801 25.8337 13.4962C24.7635 13.8776 24.6124 13.8267 25.1412 13.2547C25.5315 12.848 25.9973 12.1107 25.9973 11.8946C25.9973 11.8565 25.8085 11.9201 25.5944 12.0345C25.3678 12.1616 24.8642 12.3522 24.4865 12.4666L23.8066 12.6827L23.1896 12.2633C22.8497 12.0345 22.3712 11.7802 22.1194 11.704C21.4773 11.526 20.4952 11.5514 19.9161 11.7548C18.3422 12.3268 17.3476 13.8013 17.4609 15.4156Z" fill="#696AE3"/>
</svg>
