<svg width="36" height="37" viewBox="0 0 36 37" fill="none" xmlns="http://www.w3.org/2000/svg">
<mask id="mask0_82_2745" style="mask-type:luminance" maskUnits="userSpaceOnUse" x="0" y="0" width="36" height="37">
<path d="M0 18.7852C0 8.84403 8.05887 0.785156 18 0.785156C27.9411 0.785156 36 8.84403 36 18.7852C36 28.7263 27.9411 36.7852 18 36.7852C8.05887 36.7852 0 28.7263 0 18.7852Z" fill="#696AE3"/>
</mask>
<g mask="url(#mask0_82_2745)">
<path d="M18.0008 9.18555C15.3936 9.18555 15.0664 9.19695 14.0424 9.24355C13.0204 9.29035 12.3227 9.45215 11.7123 9.68955C11.0809 9.93475 10.5453 10.2628 10.0117 10.7966C9.47771 11.3302 9.14971 11.8658 8.90371 12.497C8.66571 13.1076 8.5037 13.8054 8.4577 14.827C8.4119 15.851 8.3999 16.1784 8.3999 18.7856C8.3999 21.3929 8.4115 21.7191 8.4579 22.7431C8.5049 23.7651 8.66671 24.4627 8.90391 25.0731C9.14931 25.7045 9.47731 26.2401 10.0111 26.7737C10.5445 27.3077 11.0801 27.6365 11.7111 27.8817C12.3219 28.1191 13.0198 28.2809 14.0416 28.3277C15.0656 28.3743 15.3926 28.3857 17.9996 28.3857C20.607 28.3857 20.9332 28.3743 21.9572 28.3277C22.9793 28.2809 23.6777 28.1191 24.2885 27.8817C24.9197 27.6365 25.4545 27.3077 25.9879 26.7737C26.5219 26.2401 26.8499 25.7045 27.0959 25.0733C27.3319 24.4627 27.4939 23.7649 27.5419 22.7433C27.5879 21.7193 27.5999 21.3929 27.5999 18.7856C27.5999 16.1784 27.5879 15.8512 27.5419 14.8272C27.4939 13.8052 27.3319 13.1076 27.0959 12.4972C26.8499 11.8658 26.5219 11.3302 25.9879 10.7966C25.4539 10.2626 24.9199 9.93455 24.2879 9.68955C23.6759 9.45215 22.9779 9.29035 21.9558 9.24355C20.9318 9.19695 20.6058 9.18555 17.9978 9.18555H18.0008ZM17.1396 10.9156C17.3952 10.9152 17.6804 10.9156 18.0008 10.9156C20.564 10.9156 20.8678 10.9248 21.88 10.9708C22.8161 11.0136 23.3241 11.17 23.6625 11.3014C24.1105 11.4754 24.4299 11.6834 24.7657 12.0194C25.1017 12.3554 25.3097 12.6754 25.4841 13.1234C25.6155 13.4614 25.7721 13.9694 25.8147 14.9054C25.8607 15.9174 25.8707 16.2214 25.8707 18.7834C25.8707 21.3455 25.8607 21.6495 25.8147 22.6615C25.7719 23.5975 25.6155 24.1055 25.4841 24.4435C25.3101 24.8915 25.1017 25.2105 24.7657 25.5463C24.4297 25.8823 24.1107 26.0903 23.6625 26.2643C23.3245 26.3963 22.8161 26.5523 21.88 26.5951C20.868 26.6411 20.564 26.6511 18.0008 26.6511C15.4374 26.6511 15.1336 26.6411 14.1216 26.5951C13.1856 26.5519 12.6775 26.3955 12.3389 26.2641C11.8909 26.0901 11.5709 25.8821 11.2349 25.5461C10.8989 25.2101 10.6909 24.8909 10.5165 24.4427C10.3851 24.1047 10.2285 23.5967 10.1859 22.6607C10.1399 21.6487 10.1307 21.3447 10.1307 18.781C10.1307 16.2174 10.1399 15.915 10.1859 14.903C10.2287 13.967 10.3851 13.459 10.5165 13.1206C10.6905 12.6726 10.8989 12.3526 11.2349 12.0166C11.5709 11.6806 11.8909 11.4726 12.3389 11.2982C12.6773 11.1662 13.1856 11.0102 14.1216 10.9672C15.0072 10.9272 15.3504 10.9152 17.1396 10.9132V10.9156ZM23.1253 12.5096C22.4892 12.5096 21.9732 13.025 21.9732 13.6612C21.9732 14.2972 22.4892 14.8132 23.1253 14.8132C23.7613 14.8132 24.2773 14.2972 24.2773 13.6612C24.2773 13.0252 23.7613 12.5096 23.1253 12.5096ZM18.0008 13.8556C15.2782 13.8556 13.0708 16.063 13.0708 18.7856C13.0708 21.5083 15.2782 23.7147 18.0008 23.7147C20.7234 23.7147 22.9301 21.5083 22.9301 18.7856C22.9301 16.063 20.7234 13.8556 18.0008 13.8556ZM18.0008 15.5856C19.768 15.5856 21.2008 17.0182 21.2008 18.7856C21.2008 20.5529 19.768 21.9857 18.0008 21.9857C16.2334 21.9857 14.8008 20.5529 14.8008 18.7856C14.8008 17.0182 16.2334 15.5856 18.0008 15.5856Z" fill="#696AE3"/>
</g>
</svg>
