<svg width="82" height="13" viewBox="0 0 82 13" fill="none" xmlns="http://www.w3.org/2000/svg">
<path d="M9.552 4.27658C9.552 4.92724 9.40267 5.52458 9.104 6.06858C8.80533 6.60191 8.34667 7.03391 7.728 7.36458C7.10933 7.69524 6.34133 7.86058 5.424 7.86058H3.728V11.8926H0.992V0.660578H5.424C6.32 0.660578 7.07733 0.815244 7.696 1.12458C8.31467 1.43391 8.77867 1.86058 9.088 2.40458C9.39733 2.94858 9.552 3.57258 9.552 4.27658ZM5.216 5.68458C5.73867 5.68458 6.128 5.56191 6.384 5.31658C6.64 5.07124 6.768 4.72458 6.768 4.27658C6.768 3.82858 6.64 3.48191 6.384 3.23658C6.128 2.99124 5.73867 2.86858 5.216 2.86858H3.728V5.68458H5.216ZM17.9684 9.90858H13.7764L13.1044 11.8926H10.2404L14.3044 0.660578H17.4724L21.5364 11.8926H18.6404L17.9684 9.90858ZM17.2644 7.79658L15.8724 3.68458L14.4964 7.79658H17.2644ZM28.5013 11.8926L26.1653 7.65258H25.5093V11.8926H22.7733V0.660578H27.3653C28.2506 0.660578 29.0026 0.815244 29.6213 1.12458C30.2506 1.43391 30.7199 1.86058 31.0293 2.40458C31.3386 2.93791 31.4933 3.53524 31.4933 4.19658C31.4933 4.94324 31.2799 5.60991 30.8533 6.19658C30.4373 6.78324 29.8186 7.19924 28.9973 7.44458L31.5893 11.8926H28.5013ZM25.5093 5.71658H27.2053C27.7066 5.71658 28.0799 5.59391 28.3253 5.34858C28.5813 5.10324 28.7093 4.75658 28.7093 4.30858C28.7093 3.88191 28.5813 3.54591 28.3253 3.30058C28.0799 3.05524 27.7066 2.93258 27.2053 2.93258H25.5093V5.71658ZM41.2908 0.660578V2.85258H38.3148V11.8926H35.5788V2.85258H32.6028V0.660578H41.2908ZM52.7119 11.8926H49.9759L45.3999 4.96458V11.8926H42.6639V0.660578H45.3999L49.9759 7.62058V0.660578H52.7119V11.8926ZM57.4311 2.85258V5.12458H61.0951V7.23658H57.4311V9.70058H61.5751V11.8926H54.6951V0.660578H61.5751V2.85258H57.4311ZM69.0794 11.8926L66.7434 7.65258H66.0874V11.8926H63.3514V0.660578H67.9434C68.8287 0.660578 69.5807 0.815244 70.1994 1.12458C70.8287 1.43391 71.298 1.86058 71.6074 2.40458C71.9167 2.93791 72.0714 3.53524 72.0714 4.19658C72.0714 4.94324 71.858 5.60991 71.4314 6.19658C71.0154 6.78324 70.3967 7.19924 69.5754 7.44458L72.1674 11.8926H69.0794ZM66.0874 5.71658H67.7834C68.2847 5.71658 68.658 5.59391 68.9034 5.34858C69.1594 5.10324 69.2874 4.75658 69.2874 4.30858C69.2874 3.88191 69.1594 3.54591 68.9034 3.30058C68.658 3.05524 68.2847 2.93258 67.7834 2.93258H66.0874V5.71658ZM77.8529 12.0046C77.0315 12.0046 76.2955 11.8712 75.6449 11.6046C74.9942 11.3379 74.4715 10.9432 74.0769 10.4206C73.6929 9.89791 73.4902 9.26858 73.4689 8.53258H76.3809C76.4235 8.94858 76.5675 9.26858 76.8129 9.49258C77.0582 9.70591 77.3782 9.81258 77.7729 9.81258C78.1782 9.81258 78.4982 9.72191 78.7329 9.54058C78.9675 9.34858 79.0849 9.08724 79.0849 8.75658C79.0849 8.47924 78.9889 8.24991 78.7969 8.06858C78.6155 7.88724 78.3862 7.73791 78.1089 7.62058C77.8422 7.50324 77.4582 7.36991 76.9569 7.22058C76.2315 6.99658 75.6395 6.77258 75.1809 6.54858C74.7222 6.32458 74.3275 5.99391 73.9969 5.55658C73.6662 5.11924 73.5009 4.54858 73.5009 3.84458C73.5009 2.79924 73.8795 1.98324 74.6369 1.39658C75.3942 0.799245 76.3809 0.500578 77.5969 0.500578C78.8342 0.500578 79.8315 0.799245 80.5889 1.39658C81.3462 1.98324 81.7515 2.80458 81.8049 3.86058H78.8449C78.8235 3.49791 78.6902 3.21524 78.4449 3.01258C78.1995 2.79924 77.8849 2.69258 77.5009 2.69258C77.1702 2.69258 76.9035 2.78324 76.7009 2.96458C76.4982 3.13524 76.3969 3.38591 76.3969 3.71658C76.3969 4.07924 76.5675 4.36191 76.9089 4.56458C77.2502 4.76724 77.7835 4.98591 78.5089 5.22058C79.2342 5.46591 79.8209 5.70058 80.2689 5.92458C80.7275 6.14858 81.1222 6.47391 81.4529 6.90058C81.7835 7.32724 81.9489 7.87658 81.9489 8.54858C81.9489 9.18858 81.7835 9.76991 81.4529 10.2926C81.1329 10.8152 80.6635 11.2312 80.0449 11.5406C79.4262 11.8499 78.6955 12.0046 77.8529 12.0046Z" fill="#6E6E6E"/>
</svg>
