<svg width="96" height="35" viewBox="0 0 96 35" fill="none" xmlns="http://www.w3.org/2000/svg">
<path d="M33.7789 22.0232C34.3634 22.0232 34.9419 21.9631 35.5144 21.843C36.0868 21.7229 36.6553 21.5187 37.2198 21.2305C37.7843 20.9423 38.2807 20.59 38.709 20.1736C39.1374 19.7573 39.4837 19.2248 39.7479 18.5763C40.0121 17.9277 40.1442 17.2071 40.1442 16.4145C40.1442 15.7179 40.0442 15.1014 39.844 14.5649C39.4997 13.6602 38.7911 12.9075 37.7182 12.307C37.2058 12.0188 36.2129 11.5904 34.7397 11.022C33.7469 10.6376 33.0723 10.3154 32.716 10.0552C32.3597 9.79494 32.1856 9.47268 32.1936 9.08835C32.2016 8.664 32.3477 8.33172 32.632 8.09152C32.9162 7.85132 33.3025 7.73122 33.7909 7.73122C34.7998 7.73122 36.0008 8.29169 37.3939 9.41263L39.7359 6.36208C37.8703 4.80878 35.8446 4.04814 33.6588 4.08017C32.6099 4.09618 31.6471 4.33038 30.7704 4.78276C29.8937 5.23514 29.2011 5.85565 28.6927 6.64431C28.1842 7.43297 27.93 8.3037 27.93 9.25649C27.93 9.7369 27.9841 10.1853 28.0922 10.6016C28.2003 11.018 28.3404 11.3863 28.5125 11.7065C28.6847 12.0268 28.9088 12.3291 29.1851 12.6133C29.4613 12.8975 29.7415 13.1417 30.0258 13.3459C30.31 13.5501 30.6443 13.7502 31.0286 13.9464C31.4129 14.1426 31.7712 14.3067 32.1035 14.4388C32.4358 14.5709 32.8141 14.709 33.2385 14.8532C34.2553 15.1895 34.9439 15.4957 35.3042 15.7719C35.6645 16.0482 35.8446 16.4225 35.8446 16.8949C35.8446 17.1671 35.7826 17.4073 35.6585 17.6155C35.5344 17.8237 35.3202 17.9938 35.0159 18.1259C34.7117 18.258 34.3314 18.3241 33.875 18.3241C33.2265 18.3241 32.5359 18.1479 31.8033 17.7956C31.0707 17.4433 30.3881 16.9229 29.7556 16.2343L27.3295 19.2368C28.2503 20.1656 29.2651 20.8622 30.3741 21.3266C31.483 21.791 32.6179 22.0232 33.7789 22.0232ZM47.0374 21.783L48.8629 15.0814H48.899L50.7605 21.783H53.9672L58.0386 9.74891H54.2194L52.2378 16.2103H52.1897L50.4002 9.74891H47.3857L45.6082 16.1983H45.5602L43.5905 9.74891H39.7593L43.8307 21.783H47.0374ZM62.6859 21.783V9.74891H58.8547V21.783H62.6859ZM62.6859 3.89259V7.7968H58.8547V3.89259H62.6859ZM68.7863 3.89259V7.7968H64.9551V3.89259H68.7863ZM68.4382 22.0111C69.2068 22.0111 69.8373 21.9411 70.3297 21.801C70.8221 21.6609 71.3126 21.4547 71.801 21.1825L70.8522 18.3481C70.4598 18.5483 70.0635 18.6483 69.6632 18.6483C69.3189 18.6483 69.0807 18.5282 68.9486 18.288C68.8165 18.0478 68.7504 17.7116 68.7504 17.2792V12.8835H71.6689V9.74891H68.7504H64.9072H61.1099V12.8835H64.9072V17.9998C64.9072 19.3129 65.2275 20.3097 65.868 20.9903C66.5085 21.6709 67.3653 22.0111 68.4382 22.0111ZM77.8174 22.0232C79.0184 22.0232 80.0893 21.817 81.0301 21.4046C81.9709 20.9923 82.7175 20.4538 83.27 19.7893L80.6398 17.4954C79.9912 18.224 79.1746 18.5883 78.1897 18.5883C77.7894 18.5883 77.4191 18.5182 77.0788 18.3781C76.7385 18.238 76.4483 18.0438 76.2081 17.7956C75.9679 17.5474 75.7817 17.2472 75.6496 16.8949C75.5175 16.5426 75.4514 16.1583 75.4514 15.7419C75.4514 14.9172 75.6996 14.2467 76.1961 13.7302C76.6925 13.2138 77.345 12.9556 78.1537 12.9556C79.1705 12.9556 79.9992 13.3439 80.6398 14.1206L83.2099 11.9227C82.6174 11.1541 81.8568 10.5616 80.928 10.1452C79.9992 9.72889 79.0264 9.52072 78.0096 9.52072C76.7685 9.52072 75.6576 9.78293 74.6768 10.3074C73.696 10.8318 72.9333 11.5704 72.3889 12.5232C71.8444 13.476 71.5722 14.5609 71.5722 15.7779C71.5722 16.995 71.8444 18.0799 72.3889 19.0327C72.9333 19.9855 73.678 20.7221 74.6227 21.2425C75.5675 21.7629 76.6324 22.0232 77.8174 22.0232ZM87.9053 21.783V15.8177H87.9173C87.9173 14.92 88.1175 14.2428 88.5178 13.786C88.9181 13.3293 89.4666 13.1009 90.1632 13.1009C90.8677 13.1009 91.3762 13.282 91.6884 13.6443C92.0007 14.0065 92.1568 14.6483 92.1568 15.5697V21.783H96V14.6483C96 13.7427 95.8939 12.9631 95.6818 12.3095C95.4696 11.6559 95.1633 11.146 94.763 10.7798C94.3627 10.4136 93.9103 10.1459 93.4059 9.97655C92.9014 9.80724 92.321 9.72258 91.6644 9.72258C90.9358 9.72258 90.2512 9.85646 89.6107 10.1242C88.9702 10.3919 88.4177 10.7896 87.9533 11.3172H87.9053V3.96998H84.0621V21.783H87.9053Z" fill="white"/>
<path d="M60.3883 33.0555C60.745 33.0555 61.0791 32.9723 61.3906 32.8058C61.7022 32.6394 61.9649 32.404 62.179 32.0996C62.393 31.7952 62.5357 31.4432 62.607 31.0437C62.6355 30.8868 62.6498 30.737 62.6498 30.5943C62.6498 30.1187 62.5083 29.7418 62.2253 29.4635C61.9423 29.1853 61.5654 29.0462 61.0946 29.0462C60.7331 29.0462 60.4026 29.1318 60.103 29.303C59.8033 29.4742 59.5679 29.6954 59.3967 29.9665L59.7891 27.7193H59.2968L58.3622 32.9985H58.8545L59.0043 32.1424C59.0852 32.4135 59.2445 32.6334 59.4823 32.8023C59.7201 32.9711 60.0221 33.0555 60.3883 33.0555ZM60.374 32.6204C60.0173 32.6204 59.7272 32.511 59.5037 32.2922C59.2802 32.0734 59.1684 31.7785 59.1684 31.4076C59.1684 31.3029 59.1803 31.184 59.2041 31.0509C59.2611 30.737 59.3753 30.4611 59.5465 30.2233C59.7177 29.9855 59.9246 29.8024 60.1672 29.674C60.4097 29.5456 60.6642 29.4814 60.9305 29.4814C61.292 29.4814 61.5833 29.5872 61.8044 29.7988C62.0256 30.0105 62.1362 30.3042 62.1362 30.6799C62.1362 30.7798 62.1243 30.901 62.1005 31.0437C62.0434 31.3624 61.9305 31.6418 61.7616 31.882C61.5928 32.1222 61.3883 32.3053 61.1481 32.4313C60.9079 32.5573 60.6499 32.6204 60.374 32.6204ZM63.8547 34.8319L67.172 29.1033H66.6512L64.7892 32.4063L64.0544 29.1033H63.498L64.4111 32.9699L63.3267 34.8319H63.8547ZM71.0585 33.0484C71.3914 33.0484 71.6827 32.9913 71.9324 32.8772C72.1821 32.763 72.3783 32.6061 72.5209 32.4063C72.6636 32.2066 72.7445 31.9854 72.7635 31.7429C72.7683 31.7096 72.7706 31.662 72.7706 31.6002C72.7706 31.3481 72.71 31.1388 72.5887 30.9724C72.4674 30.8059 72.32 30.6728 72.1464 30.5729C71.9728 30.473 71.7457 30.366 71.4651 30.2518C71.2225 30.152 71.0323 30.064 70.8944 29.9879C70.7565 29.9118 70.6399 29.8167 70.5448 29.7025C70.4497 29.5884 70.4021 29.4481 70.4021 29.2816C70.4021 29.001 70.5091 28.7787 70.7232 28.6146C70.9372 28.4505 71.213 28.3685 71.5507 28.3685C71.7695 28.3685 71.9538 28.4077 72.1036 28.4862C72.2534 28.5646 72.3628 28.6657 72.4318 28.7894C72.5007 28.913 72.5305 29.0391 72.5209 29.1675H73.0417C73.056 28.9439 73.0073 28.7394 72.8955 28.5539C72.7837 28.3685 72.6149 28.2222 72.389 28.1152C72.1631 28.0082 71.8932 27.9547 71.5793 27.9547C71.2606 27.9547 70.9764 28.0106 70.7267 28.1223C70.477 28.2341 70.2797 28.3887 70.1346 28.586C69.9895 28.7834 69.9123 29.0105 69.9028 29.2673C69.8837 29.5337 69.9301 29.7525 70.0419 29.9237C70.1536 30.0949 70.2951 30.2293 70.4663 30.3268C70.6376 30.4243 70.8682 30.5301 71.1583 30.6442C71.4057 30.7441 71.6007 30.8333 71.7433 30.9117C71.886 30.9902 72.0061 31.0901 72.1036 31.2114C72.2011 31.3327 72.2499 31.4837 72.2499 31.6644C72.2499 31.964 72.1452 32.2018 71.936 32.3778C71.7267 32.5538 71.4461 32.6418 71.0941 32.6418C70.8421 32.6418 70.6364 32.5954 70.477 32.5026C70.3177 32.4099 70.206 32.2934 70.1417 32.1531C70.0775 32.0128 70.0502 31.8665 70.0597 31.7143H69.5675C69.5627 31.7476 69.5603 31.7952 69.5603 31.857C69.5603 32.0901 69.6221 32.2969 69.7458 32.4777C69.8695 32.6584 70.0442 32.7987 70.2702 32.8986C70.4961 32.9985 70.7588 33.0484 71.0585 33.0484ZM75.3238 32.9985L75.4023 32.5704H74.9457C74.7555 32.5704 74.6188 32.5407 74.5355 32.4812C74.4523 32.4218 74.4107 32.316 74.4107 32.1638C74.4107 32.1019 74.4178 32.0282 74.4321 31.9426L74.8601 29.5242H75.9374L76.0158 29.1033H74.9386L75.1098 28.1259H74.6104L74.4392 29.1033H73.897L73.8186 29.5242H74.3607L73.9327 31.9426C73.9137 32.052 73.9042 32.159 73.9042 32.2636C73.9042 32.5252 73.9779 32.7131 74.1253 32.8272C74.2727 32.9414 74.4939 32.9985 74.7888 32.9985H75.3238ZM77.9198 33.0555C78.3907 33.0555 78.8033 32.9354 79.1576 32.6953C79.5119 32.4551 79.7699 32.1447 79.9316 31.7643H79.3966C79.2824 32.0306 79.1017 32.2422 78.8544 32.3992C78.6071 32.5561 78.3193 32.6346 77.9912 32.6346C77.6487 32.6346 77.3669 32.5347 77.1458 32.335C76.9246 32.1352 76.8141 31.8523 76.8141 31.486C76.8141 31.4052 76.8212 31.3196 76.8355 31.2292H80.0672C80.0957 31.1151 80.1243 30.9867 80.1528 30.844C80.1718 30.7441 80.1813 30.63 80.1813 30.5015C80.1813 30.2209 80.1207 29.9712 79.9994 29.7525C79.8781 29.5337 79.701 29.3613 79.4679 29.2352C79.2349 29.1092 78.9543 29.0462 78.6261 29.0462C78.2551 29.0462 77.9103 29.127 77.5917 29.2888C77.273 29.4505 77.0055 29.6835 76.7891 29.9879C76.5727 30.2923 76.4288 30.6466 76.3575 31.0509C76.3289 31.2078 76.3147 31.3576 76.3147 31.5003C76.3147 31.9807 76.4609 32.36 76.7534 32.6382C77.0459 32.9164 77.4347 33.0555 77.9198 33.0555ZM79.6391 30.8582H76.9068C76.9686 30.5634 77.0828 30.3113 77.2492 30.102C77.4157 29.8928 77.6107 29.7358 77.8342 29.6312C78.0578 29.5266 78.2908 29.4742 78.5334 29.4742C78.8663 29.4742 79.1398 29.5646 79.3538 29.7453C79.5678 29.9261 79.6748 30.1853 79.6748 30.5229C79.6748 30.6133 79.6629 30.7251 79.6391 30.8582ZM81.2792 32.9985L81.6858 30.687C81.7809 30.2828 81.9522 29.9926 82.1995 29.8167C82.4468 29.6407 82.7417 29.5527 83.0841 29.5527H83.2268L83.3195 29.0319C82.9866 29.0319 82.6941 29.1056 82.442 29.2531C82.19 29.4005 81.9854 29.6098 81.8285 29.8809L81.964 29.1033H81.4647L80.7798 32.9985H81.2792ZM83.9608 32.9985L84.8953 27.7193H84.396L83.4614 32.9985H83.9608ZM86.2643 28.3685C86.3784 28.3685 86.4783 28.3245 86.5639 28.2365C86.6495 28.1485 86.6923 28.0427 86.6923 27.919C86.6923 27.8334 86.665 27.7644 86.6103 27.7121C86.5556 27.6598 86.4831 27.6337 86.3927 27.6337C86.2738 27.6337 86.1715 27.6753 86.0859 27.7585C86.0003 27.8417 85.9575 27.9452 85.9575 28.0688C85.9575 28.1592 85.9861 28.2317 86.0431 28.2864C86.1002 28.3411 86.1739 28.3685 86.2643 28.3685ZM85.6936 32.9985L86.3784 29.1033H85.8791L85.1942 32.9985H85.6936ZM87.4263 32.9985L87.8045 30.8511V30.8725C87.8853 30.4112 88.0589 30.0616 88.3252 29.8238C88.5916 29.586 88.9126 29.4671 89.2883 29.4671C89.5975 29.4671 89.8377 29.548 90.0089 29.7097C90.1801 29.8714 90.2657 30.1092 90.2657 30.4231C90.2657 30.5467 90.2562 30.6632 90.2372 30.7726L89.8448 32.9985H90.337L90.7437 30.7156C90.7675 30.5919 90.7794 30.454 90.7794 30.3018C90.7794 29.888 90.6593 29.5729 90.4191 29.3565C90.1789 29.1401 89.8591 29.0319 89.4596 29.0319C89.1599 29.0319 88.8817 29.0961 88.6249 29.2245C88.368 29.353 88.1564 29.5361 87.9899 29.7739L88.1112 29.1033H87.6118L86.927 32.9985H87.4263ZM93.0615 34.9104C93.4134 34.9104 93.7416 34.8355 94.0459 34.6857C94.3503 34.5358 94.6036 34.323 94.8057 34.0472C95.0079 33.7713 95.1398 33.455 95.2017 33.0983L95.9008 29.1033H95.4014L95.2516 29.9522C95.1803 29.6906 95.0245 29.4742 94.7843 29.303C94.5441 29.1318 94.2409 29.0462 93.8747 29.0462C93.518 29.0462 93.1839 29.1282 92.8724 29.2923C92.5609 29.4564 92.2981 29.6894 92.0841 29.9915C91.8701 30.2935 91.7274 30.6442 91.656 31.0437C91.6275 31.2007 91.6132 31.3481 91.6132 31.486C91.6132 31.9664 91.7547 32.3481 92.0377 32.6311C92.3207 32.914 92.6976 33.0555 93.1685 33.0555C93.5347 33.0555 93.8688 32.9687 94.1708 32.7951C94.4728 32.6215 94.7047 32.4016 94.8664 32.1352L94.7023 33.0983C94.6262 33.5264 94.4431 33.8629 94.153 34.1078C93.8628 34.3527 93.5252 34.4752 93.1399 34.4752C92.788 34.4752 92.5074 34.3944 92.2981 34.2326C92.0888 34.0709 91.9652 33.8545 91.9271 33.5834H91.4349C91.4444 33.9925 91.593 34.3159 91.8808 34.5537C92.1685 34.7915 92.5621 34.9104 93.0615 34.9104ZM93.3325 32.6204C92.9758 32.6204 92.6869 32.5121 92.4658 32.2957C92.2446 32.0793 92.134 31.7833 92.134 31.4076C92.134 31.3077 92.1459 31.1864 92.1697 31.0437C92.2268 30.7203 92.3385 30.4409 92.505 30.2055C92.6715 29.9701 92.8748 29.7905 93.115 29.6669C93.3551 29.5432 93.6132 29.4814 93.889 29.4814C94.2457 29.4814 94.5358 29.5908 94.7594 29.8095C94.9829 30.0283 95.0947 30.3232 95.0947 30.6942C95.0947 30.7988 95.0828 30.9177 95.059 31.0509C95.0019 31.3648 94.889 31.6406 94.7201 31.8784C94.5513 32.1162 94.3444 32.2993 94.0995 32.4277C93.8545 32.5561 93.5989 32.6204 93.3325 32.6204Z" fill="white"/>
<path fill-rule="evenodd" clip-rule="evenodd" d="M3.07701 16.3601L6.35535 14.0598L9.80461 18.7652L12.7107 16.772L6.60909 8.34363C5.62152 6.37148 5.46812 4.45386 6.14888 2.59076C3.98694 3.67303 2.03059 4.96041 1.01355 6.31861C-0.26129 8.02108 -0.217895 10.5544 0.505909 12.068C0.648799 12.3668 1.50583 13.7975 3.07701 16.3601Z" fill="white"/>
<path fill-rule="evenodd" clip-rule="evenodd" d="M7.49186 7.212L12.2892 3.81815L16.3238 9.49088L19.1603 7.212C16.986 4.14262 15.5797 2.2695 14.9413 1.59265C13.9838 0.577374 12.1591 -0.987609 8.95774 0.84938C6.8235 2.07404 6.33487 4.19491 7.49186 7.212Z" fill="white"/>
<path fill-rule="evenodd" clip-rule="evenodd" d="M8.24524 8.39331L14.5836 17.0574L10.6069 19.858C11.9878 21.0745 13.0337 21.8081 13.7446 22.0588C15.1768 22.5638 16.4898 22.5638 17.6687 21.6944C19.0936 20.6436 19.4977 18.9156 18.8808 16.5104C18.8035 16.0236 18.1501 14.8361 16.9206 12.9481C15.6911 11.06 14.0414 8.66685 11.9717 5.76862L8.24524 8.39331Z" fill="white"/>
<path fill-rule="evenodd" clip-rule="evenodd" d="M9.57135 20.5364C10.912 22.077 12.5742 23.0499 14.5581 23.4551C12.9299 25.0733 10.7243 25.8824 7.94108 25.8824C5.15792 25.8824 2.57288 23.881 0.185974 19.8781L6.01806 15.7567C8.3509 18.9018 9.53533 20.495 9.57135 20.5364Z" fill="white"/>
</svg>
