<svg width="236" height="49" viewBox="0 0 236 49" fill="none" xmlns="http://www.w3.org/2000/svg">
<path d="M24.16 40.4L25.42 41.42C24.74 43.1 23.66 44.52 22.18 45.68C20.74 46.84 19.42 47.42 18.22 47.42C17.06 47.42 16.14 47.02 15.46 46.22C14.78 45.38 14.44 44.3 14.44 42.98C14.44 41.66 14.66 39.96 15.1 37.88C13.22 40.84 11.2 43.16 9.04 44.84C6.88 46.52 5.06 47.36 3.58 47.36C1.34 47.36 0.22 45.76 0.22 42.56C0.22 39.84 1.14 36.36 2.98 32.12C4.82 27.88 6.16 25.42 7 24.74L9.88 26C8.24 28.64 7 31.24 6.16 33.8C5.32 36.36 4.9 38.08 4.9 38.96C4.9 39.8 5.16 40.48 5.68 41C6.24 41.52 6.88 41.78 7.6 41.78C9.2 41.78 11.18 40.32 13.54 37.4C15.94 34.44 18.38 30.04 20.86 24.2L23.92 25.58C23.84 25.9 22.92 28.22 21.16 32.54C19.44 36.86 18.58 39.46 18.58 40.34C18.58 41.18 18.76 41.82 19.12 42.26C19.52 42.7 19.9 42.92 20.26 42.92C20.66 42.92 20.96 42.9 21.16 42.86C21.36 42.82 21.56 42.74 21.76 42.62C21.96 42.5 22.12 42.4 22.24 42.32C22.4 42.24 22.58 42.1 22.78 41.9L23.26 41.48C23.34 41.36 23.48 41.18 23.68 40.94C23.92 40.66 24.08 40.48 24.16 40.4ZM51.6658 39.74L52.9258 40.7C52.0458 42.46 50.8258 43.94 49.2658 45.14C47.7458 46.34 46.3658 46.94 45.1258 46.94C43.8858 46.94 42.9058 46.58 42.1858 45.86C41.4658 45.14 41.1058 44.24 41.1058 43.16C41.1058 42.08 41.7858 40.2 43.1458 37.52C44.5458 34.8 45.2458 32.8 45.2458 31.52C45.2458 30.96 45.0058 30.46 44.5258 30.02C44.0858 29.54 43.5458 29.3 42.9058 29.3C40.8658 29.3 38.8058 30.86 36.7258 33.98C34.6458 37.06 32.3258 41.52 29.7658 47.36L26.1658 46.1C26.9258 41.46 28.0058 36.94 29.4058 32.54C30.8458 28.1 32.1658 24.92 33.3658 23L35.8258 23.78C34.7058 26.62 33.2858 31.52 31.5658 38.48C37.0858 29.04 42.1658 24.32 46.8058 24.32C47.8058 24.32 48.6258 24.66 49.2658 25.34C49.9458 26.02 50.2858 26.82 50.2858 27.74C50.2858 28.66 50.1658 29.5 49.9258 30.26C49.6858 30.98 48.9258 32.7 47.6458 35.42C46.4058 38.1 45.7858 39.78 45.7858 40.46C45.7858 41.14 45.9858 41.68 46.3858 42.08C46.7858 42.44 47.1658 42.62 47.5258 42.62C47.8858 42.62 48.1858 42.56 48.4258 42.44C48.6658 42.32 48.9258 42.14 49.2058 41.9C49.5258 41.66 49.8058 41.44 50.0458 41.24C50.2858 41.04 50.5658 40.78 50.8858 40.46C51.2458 40.1 51.5058 39.86 51.6658 39.74ZM68.3978 40.28L69.7178 41.78C68.7178 43.34 67.4978 44.56 66.0578 45.44C64.6578 46.32 63.2378 46.76 61.7978 46.76C60.3578 46.76 59.2178 46.36 58.3778 45.56C57.5378 44.72 57.1178 43.58 57.1178 42.14C57.1178 38.78 58.3778 34.14 60.8978 28.22C58.8578 28.54 56.8178 29.02 54.7778 29.66L54.3578 27.32L54.2978 27.26C56.2978 26.42 58.9178 25.74 62.1578 25.22C62.4778 24.62 63.1978 23.16 64.3178 20.84C66.5578 16.24 68.1578 13.26 69.1178 11.9L71.6978 12.92C71.2978 13.8 70.5978 15.28 69.5978 17.36C68.5978 19.4 67.4778 21.72 66.2378 24.32C68.0378 24.2 69.4578 24.14 70.4978 24.14C71.5378 24.14 72.3378 24.3 72.8978 24.62V27.2C72.3378 27.08 71.5178 27.02 70.4378 27.02C69.3978 27.02 67.5178 27.2 64.7978 27.56C62.4378 32.84 61.2578 36.68 61.2578 39.08C61.2578 40 61.5378 40.76 62.0978 41.36C62.6978 41.96 63.4778 42.26 64.4378 42.26C65.4378 42.26 66.7578 41.6 68.3978 40.28ZM86.4025 21.56C84.1625 21.56 83.0425 20.66 83.0425 18.86C83.0425 17.86 83.3225 17.02 83.8825 16.34C84.4425 15.66 85.1625 15.32 86.0425 15.32C86.9225 15.32 87.6425 15.58 88.2025 16.1C88.7625 16.62 89.0425 17.3 89.0425 18.14C89.0425 18.98 88.8025 19.76 88.3225 20.48C87.8425 21.2 87.2025 21.56 86.4025 21.56ZM85.6225 39.26L86.8225 40.28C85.8625 42.12 84.5825 43.7 82.9825 45.02C81.4225 46.3 80.0025 46.94 78.7225 46.94C76.4825 46.94 75.3625 45.38 75.3625 42.26C75.3625 38.38 76.9625 33.32 80.1625 27.08C80.8825 25.72 81.3025 24.92 81.4225 24.68L84.0025 26.24C83.1625 27.76 82.1225 30.18 80.8825 33.5C79.6825 36.82 79.0825 38.96 79.0825 39.92C79.0825 40.84 79.2825 41.5 79.6825 41.9C80.0825 42.3 80.5625 42.5 81.1225 42.5C82.2025 42.5 83.7025 41.42 85.6225 39.26ZM99.5772 41.24L100.837 42.26C99.4772 44.38 98.2972 45.92 97.2972 46.88C96.3372 47.8 95.2572 48.26 94.0572 48.26C92.8572 48.26 91.8772 47.78 91.1172 46.82C90.3572 45.86 89.9772 44.66 89.9772 43.22C89.9772 40.42 91.8172 34.4 95.4972 25.16C99.1772 15.88 102.957 7.72 106.837 0.679999L109.477 2.12C105.557 9.72 102.017 17.28 98.8572 24.8C95.6972 32.28 94.1172 37.66 94.1172 40.94C94.1172 42.82 94.8172 43.76 96.2172 43.76C97.3372 43.76 98.4572 42.92 99.5772 41.24ZM160.474 39.74L161.734 40.7C160.854 42.46 159.634 43.94 158.074 45.14C156.554 46.34 155.174 46.94 153.934 46.94C152.694 46.94 151.714 46.58 150.994 45.86C150.274 45.14 149.914 44.24 149.914 43.16C149.914 42.08 150.594 40.2 151.954 37.52C153.354 34.8 154.054 32.8 154.054 31.52C154.054 30.96 153.814 30.46 153.334 30.02C152.894 29.54 152.354 29.3 151.714 29.3C149.674 29.3 147.614 30.86 145.534 33.98C143.454 37.06 141.134 41.52 138.574 47.36L134.974 46.1C135.734 41.46 136.814 36.94 138.214 32.54C139.654 28.1 140.974 24.92 142.174 23L144.634 23.78C143.514 26.62 142.094 31.52 140.374 38.48C145.894 29.04 150.974 24.32 155.614 24.32C156.614 24.32 157.434 24.66 158.074 25.34C158.754 26.02 159.094 26.82 159.094 27.74C159.094 28.66 158.974 29.5 158.734 30.26C158.494 30.98 157.734 32.7 156.454 35.42C155.214 38.1 154.594 39.78 154.594 40.46C154.594 41.14 154.794 41.68 155.194 42.08C155.594 42.44 155.974 42.62 156.334 42.62C156.694 42.62 156.994 42.56 157.234 42.44C157.474 42.32 157.734 42.14 158.014 41.9C158.334 41.66 158.614 41.44 158.854 41.24C159.094 41.04 159.374 40.78 159.694 40.46C160.054 40.1 160.314 39.86 160.474 39.74ZM180.266 29.18C181.306 30.9 181.826 32.8 181.826 34.88C181.826 38.12 180.706 41.02 178.466 43.58C176.226 46.1 173.586 47.36 170.546 47.36C168.226 47.36 166.406 46.7 165.086 45.38C163.806 44.02 163.166 42.16 163.166 39.8C163.166 36 164.646 32.6 167.606 29.6C170.566 26.56 173.886 25.04 177.566 25.04C178.246 25.04 178.726 25.06 179.006 25.1L179.186 27.08C175.986 27.08 173.326 28 171.206 29.84C169.086 31.68 168.026 34.04 168.026 36.92C168.026 38.64 168.446 40.04 169.286 41.12C170.126 42.16 171.346 42.68 172.946 42.68C174.586 42.68 175.886 41.96 176.846 40.52C177.806 39.08 178.286 37.4 178.286 35.48C178.286 33.52 177.906 31.74 177.146 30.14L180.266 29.18ZM217.11 23.66L218.79 25.22L215.19 29.6C210.95 34.84 207.81 40.04 205.77 45.2C205.25 46.28 204.71 46.82 204.15 46.82C203.63 46.82 203.19 46.76 202.83 46.64C202.51 46.48 202.13 45.96 201.69 45.08C201.29 44.2 201.01 43.14 200.85 41.9C200.69 40.66 200.55 39.6 200.43 38.72C200.31 37.84 200.23 37.2 200.19 36.8C200.15 36.36 200.09 35.92 200.01 35.48C199.97 35 199.93 34.64 199.89 34.4C199.85 34.16 199.81 33.92 199.77 33.68C199.73 33.44 199.67 33.22 199.59 33.02C199.51 32.78 199.45 32.58 199.41 32.42C199.37 32.22 199.27 31.9 199.11 31.46C198.99 31.02 198.89 30.64 198.81 30.32C196.73 32.56 194.95 35.2 193.47 38.24C192.91 39.4 191.81 41.72 190.17 45.2C189.81 45.96 189.31 46.34 188.67 46.34C188.07 46.34 187.57 46.28 187.17 46.16C186.81 46 186.43 45.52 186.03 44.72C185.63 43.92 185.33 42.72 185.13 41.12C184.17 33.08 183.25 27.6 182.37 24.68C183.53 24.36 184.69 24.2 185.85 24.2C186.05 24.56 186.31 25.66 186.63 27.5C187.31 31.06 188.17 35.24 189.21 40.04C191.17 36.28 193.33 32.82 195.69 29.66C198.09 26.46 199.67 24.86 200.43 24.86C201.31 24.86 201.91 25.48 202.23 26.72C202.59 27.92 202.89 29.96 203.13 32.84C203.41 35.68 203.77 38.06 204.21 39.98C207.97 33.54 212.27 28.1 217.11 23.66ZM232.33 8.48L235.15 10.22C229.43 19.98 224.93 29.52 221.65 38.84H218.29C220.77 28.96 225.45 18.84 232.33 8.48ZM220.15 46.94C220.91 46.94 221.55 46.68 222.07 46.16C222.59 45.64 222.85 45.02 222.85 44.3C222.85 43.54 222.59 42.92 222.07 42.44C221.55 41.92 220.91 41.66 220.15 41.66C219.43 41.66 218.81 41.92 218.29 42.44C217.81 42.92 217.57 43.54 217.57 44.3C217.57 45.02 217.81 45.64 218.29 46.16C218.81 46.68 219.43 46.94 220.15 46.94Z" fill="#EDA014"/>
<path d="M-0.5 56H233.65V60.5H-0.5V56Z" fill="#EDA014"/>
</svg>
