<svg width="82" height="20" viewBox="0 0 82 20" fill="none" xmlns="http://www.w3.org/2000/svg">
<path d="M12.9842 0.0195312C19.6991 0.0195312 25.1426 4.41072 25.1426 9.82744C25.1426 15.2442 19.6991 19.6354 12.9842 19.6354C6.2696 19.6354 0.826172 15.2442 0.826172 9.82744C0.826172 4.41072 6.2696 0.0195312 12.9842 0.0195312Z" fill="#D92128"/>
<path d="M17.0374 3.08398C18.9883 3.08398 20.5699 4.35985 20.5699 5.93367C20.5699 7.50749 18.9883 8.78331 17.0374 8.78331C15.0864 8.78331 13.5049 7.50749 13.5049 5.93367C13.5049 4.35985 15.0864 3.08398 17.0374 3.08398Z" fill="white"/>
<path d="M37.5289 12.3235C37.5289 11.2487 36.6322 10.4894 34.7947 10.1857C32.9132 9.87025 32.4426 9.57824 32.4426 9.09928C32.4426 8.48012 33.016 8.07124 34.5742 8.07124C35.6766 8.07124 36.5734 8.32825 37.1908 8.85393H37.2496V8.11805C37.2496 7.45219 36.5734 6.65775 34.2213 6.65775C31.8546 6.65775 30.4434 7.9194 30.4434 9.25109C30.4434 10.3375 31.4135 11.0151 33.1188 11.3071C35.2504 11.6693 35.515 11.9146 35.515 12.4636C35.515 13.1061 35.0299 13.515 33.5157 13.515C32.2957 13.515 31.3843 13.1295 30.708 12.6505H30.664V13.3631C30.664 14.3093 31.7077 14.9401 33.7362 14.9401C36.1765 14.9401 37.5289 13.9004 37.5289 12.3235ZM38.8543 8.74878V12.5337C38.8543 14.0055 39.8246 14.8701 41.8239 14.8701C42.9705 14.8701 43.5585 14.4611 43.5585 13.8187V13.2579H43.4849C43.1763 13.4098 42.6912 13.48 42.0591 13.48C41.2652 13.48 40.8094 13.1646 40.8094 12.3468V9.88192H42.3825C43.1908 9.88192 43.5585 9.46146 43.5585 9.13426V8.49181H40.8094V7.06664H40.3537C40.045 7.06664 39.6922 7.25349 39.4276 7.49884C39.0013 7.896 38.8543 8.12968 38.8543 8.74878ZM51.058 10.7932C51.058 9.28619 49.5291 8.35166 47.8826 8.35166C45.6188 8.35166 44.0018 9.67172 44.0018 11.7744C44.0018 13.7019 45.9276 14.9401 47.8975 14.9401C50.0732 14.9401 50.764 14.321 50.764 13.515V13.0243H50.6903C50.0583 13.4916 49.0882 13.6202 48.2648 13.6202C47.1034 13.6202 46.192 13.1178 46.0451 12.3235H47.3386C49.9554 12.3235 51.058 11.9497 51.058 10.7932ZM49.2056 10.6062C49.2056 11.0501 48.7794 11.2137 46.9124 11.2137H46.0305L46.0451 11.0034C46.0893 10.2791 46.7507 9.66005 47.7062 9.66005C48.6176 9.66005 49.2056 9.97536 49.2056 10.6062ZM56.7788 10.0221V9.46146C56.7788 8.9825 56.3524 8.43342 55.1323 8.43342C53.0449 8.43342 52.207 9.63659 52.207 10.8983V13.7953C52.207 14.4495 52.7656 14.8 53.6475 14.8H54.1915V11.1786C54.1915 10.2207 54.6766 9.83516 55.5585 9.83516C56.073 9.83516 56.4111 9.92875 56.7053 10.0221H56.7788ZM61.4264 13.9121V13.5734H60.8973C59.9711 13.5734 59.5595 13.3748 59.5595 12.744V7.44045C59.5595 6.84466 59.1333 6.38905 58.1483 6.38905H57.5897V12.8959C57.5897 14.1692 58.4719 14.8584 60.1036 14.8584C60.9708 14.8584 61.4264 14.5897 61.4264 13.9121ZM64.3249 7.12502C64.3249 6.62277 63.7958 6.21387 63.1636 6.21387C62.5315 6.21387 62.017 6.62277 62.017 7.12502C62.017 7.62735 62.5315 8.04792 63.1636 8.04792C63.7958 8.04792 64.3249 7.62735 64.3249 7.12502ZM65.7363 13.9121V13.5734H65.3686C64.5013 13.5734 64.1632 13.3748 64.1632 12.744V9.80013C64.1632 9.00585 63.634 8.63199 62.7519 8.63199H62.1933C62.1933 8.63199 62.1933 12.5337 62.1933 12.8959C62.1933 14.1692 63.0312 14.8584 64.5602 14.8584C65.3981 14.8584 65.7363 14.5897 65.7363 13.9121ZM73.4561 14.8V11.1319C73.4561 9.34452 71.9128 8.35166 70.0458 8.35166C67.576 8.35166 66.4735 9.71839 66.4735 11.0501V13.772C66.4735 14.356 67.0174 14.8 67.8555 14.8H68.4435V11.1552C68.4435 10.2558 69.0315 9.74179 69.884 9.74179C70.8983 9.74179 71.4863 10.2091 71.4863 11.2721V13.772C71.4863 14.356 72.0448 14.8 72.9271 14.8H73.4561ZM81.9407 12.1832V11.1086C81.9407 9.49644 80.6765 8.35166 78.7067 8.35166C76.1488 8.35166 74.6789 9.7885 74.6789 11.5642C74.6789 13.0477 76.0459 14.1108 77.9715 14.1108C79.1035 14.1108 79.8533 13.6318 80.0148 13.1762V13.3281C80.0148 13.3865 80.0297 13.5499 80.0297 13.6435C80.0443 13.7486 80.0443 13.8771 80.0443 13.9706C80.0443 14.8817 79.3976 15.4191 77.9715 15.4191C76.8397 15.4191 75.9282 15.1388 75.4579 14.7415H75.3696V15.4542C75.3696 16.2018 76.4868 16.8326 78.1187 16.8326C80.6765 16.8326 81.9995 15.4191 81.9995 13.8421C81.9995 13.6318 81.9847 13.293 81.9701 13.036C81.9553 12.7557 81.9407 12.3936 81.9407 12.1832ZM78.4861 9.74179C79.3535 9.74179 79.9707 10.2207 79.9707 11.202C79.9707 12.2066 79.2653 12.7906 78.2802 12.7906C77.3395 12.7906 76.7074 12.1832 76.7074 11.3655C76.7074 10.4193 77.4718 9.74179 78.4861 9.74179Z" fill="#2F2F30"/>
</svg>
